<?xml version="1.0" encoding="UTF-8"?>
<svg xmlns="http://www.w3.org/2000/svg" viewBox="0 0 960 540">
  <defs>
    <style>
      .cls-1 {
        fill: #fff;
      }
    </style>
  </defs>
  <g id="Hintergrund_weiss" data-name="Hintergrund weiss">
    <rect class="cls-1" y="0" width="960" height="540"/>
  </g>
  <g id="Ebene_249" data-name="Ebene 249">
    <g>
      <path d="M208.88,256.37c-1.59,2.25-2.76,3.62-3.62,5.17-8.09,14.55-16.11,29.13-24.17,43.69-1.62,2.93-3.48,6.43-7.35,5.17-2.57-.84-5.24-3.17-6.6-5.56-8.6-15.05-16.84-30.31-25.24-45.47-.46-.84-1.27-1.49-2.68-3.11-.34,2.2-.7,3.41-.7,4.62,.09,20.12,.18,40.25,.38,60.37,.03,3.38-1.29,4.7-4.63,4.6-5.2-.15-10.42-.24-15.61-.04-3.64,.14-4.87-1.27-4.86-4.87,.12-36.27,.13-72.54,.18-108.81,.01-9.71,.14-8.74,9.87-9.86,10.35-1.19,15.38,2.78,19.71,11.78,8.56,17.8,18.4,34.98,27.75,52.39,.69,1.28,1.7,2.38,3.16,4.39,3.08-5.64,5.74-10.39,8.31-15.2,8.83-16.51,17.66-33.03,26.42-49.57,1.46-2.76,3.34-4.01,6.64-3.77,4.48,.32,9.02,.19,13.51-.04,3.65-.19,5.43,.84,5.42,4.89-.07,38-.03,76.01,.06,114.01,0,3.43-1.59,4.68-4.73,4.68-5.2,0-10.41-.06-15.61,.04-3.75,.07-5.1-1.41-5.04-5.33,.34-20.47,.42-40.94,.56-61.41,0-.45-.35-.9-1.13-2.75Z"/>
      <path d="M260.27,290.68c1.39,0,2.8,.15,4.16-.03,5.09-.68,8.35,.45,10.9,5.87,4.06,8.62,18.11,11.48,25.95,6.05,4.44-3.08,6.66-7.53,5.94-13.03-.73-5.57-4.24-9.13-9.31-10.83-7.56-2.53-15.24-4.7-22.91-6.89-13.05-3.74-22.55-15.74-23.98-29.01-4.03-37.35,32.19-49.5,55.73-41.29,15.05,5.25,22.06,16.52,24.9,31.18,.22,1.11-1.9,3.78-3.07,3.87-5.87,.43-11.81,.55-17.66,.08-1.63-.13-3.55-2.42-4.49-4.17-4.03-7.52-8.85-10.37-17.23-9.64-6.68,.59-11.86,4.79-12.7,10.33-1.14,7.46,1.5,12.49,8.67,15.13,5.35,1.97,10.9,3.53,16.47,4.77,20.98,4.64,32.82,20.58,31,42.06-1.55,18.23-17.36,32.5-37.15,33.52-10.19,.52-20.03-.45-29.17-5.71-11.26-6.48-15.66-17.14-18.13-28.97-.18-.86,1.65-2.97,2.74-3.12,3.06-.43,6.22-.15,9.35-.16Z"/>
      <path d="M665.77,263.38c-.82,15.5-3.01,30.42-11.41,43.56-19.57,30.62-66.62,28.84-82.4-4.08-12.4-25.87-12.4-53.31,.82-79.35,9.98-19.63,32.93-28.01,54.82-22.15,18.4,4.93,28.68,17.52,33.46,34.98,2.4,8.78,3.18,18,4.69,27.03Zm-85.15-2.73c-.2,13.54,1.19,24.02,5.63,33.79,4.91,10.81,13.49,17.01,25.44,17.86,12.5,.9,22.17-3.96,28.8-14.83,4.78-7.82,6.28-16.45,6.84-25.32,.86-13.59,.7-27.12-5.65-39.64-5.66-11.16-14.7-16.99-27.51-17.02-12.9-.03-21.68,6.19-27.42,17.19-5.02,9.63-5.84,20.2-6.12,27.96Z"/>
      <path d="M732.65,276.3c4.03,6.59,7.67,12.63,11.4,18.62,5.5,8.82,11.11,17.57,16.59,26.41,.57,.92,1.1,2.44,.72,3.23-.37,.76-1.94,.98-3.02,1.3-.46,.14-1.06-.2-1.54-.1-10.35,2.22-15.47-3.4-19.85-11.88-5.71-11.07-12.65-21.51-18.9-32.3-2.14-3.7-4.7-5.71-9.25-4.84-2.34,.44-4.86,.26-7.26-.03-4.28-.52-5.34,1.35-5.26,5.38,.27,13,.13,26.02,.3,39.02,.05,3.67-1.53,4.86-5.02,4.82-11.03-.14-11.03-.07-11.05-10.99-.04-36.08-.07-72.16-.16-108.25,0-2.78,.26-4.61,3.87-4.54,13.7,.27,27.4,.35,41.1,.37,13.34,.02,23.83,5.35,31.15,16.55,13.24,20.26,2.82,48.78-20.3,55.75-.96,.29-1.85,.77-3.53,1.49Zm-36.31-37.32s-.03,0-.04,0c0,5.88,.11,11.77-.04,17.65-.09,3.42,.98,5.19,4.7,5.12,7.62-.15,15.24,.12,22.85-.18,6.05-.23,11.52-2.28,15.7-6.96,6.35-7.1,6.82-15.32,3.99-23.84-2.91-8.78-9.91-12.79-18.6-13.45-8.27-.63-16.6-.29-24.91-.41-3.11-.04-3.68,1.84-3.66,4.42,.05,5.89,.02,11.77,.02,17.66Z"/>
      <path d="M420.49,328.39c-15.11-.4-27.99-5.17-35.56-19.28-2.18-4.07-3.31-8.73-4.66-13.2-.89-2.95,.2-4.73,3.64-4.44,1.55,.13,3.18,.35,4.67,.04,5.63-1.16,7.76,1.53,9.56,6.62,3.25,9.2,10.43,13.88,20.23,14.54,10.01,.68,18.2-2.3,23.23-11.49,3.92-7.15,1.86-17.96-5.6-22.19-7.72-4.37-16.5-6.87-24.78-10.28-4.62-1.91-9.52-3.47-13.67-6.15-12.06-7.77-16.54-19.32-14.46-33.24,2-13.37,9.85-22.41,22.53-26.83,19.31-6.73,36.96-1.78,47.1,13.48,2.89,4.34,4.13,9.81,5.89,14.84,.3,.86-.43,3-.89,3.07-3.23,.45-6.54,.31-9.77,.75-4.52,.61-5.35-2.25-6.46-5.66-3.07-9.38-10.36-13.72-22.03-13.57-10.02,.12-16.33,4.55-19.28,13.51-3.44,10.47,3.31,20.62,16.02,24.34,7.16,2.09,14.45,3.93,21.32,6.75,28.67,11.77,26.78,46.35,10.14,59.48-7.94,6.27-17.07,9.05-27.17,8.89Z"/>
      <path d="M474.82,263.8c0-19.08,.05-38.17-.05-57.25-.02-3.21,1.33-4.36,4.34-4.33,14.05,.15,28.11-.03,42.15,.43,18.54,.61,31.7,12.99,34.2,31.54,2.73,20.24-5.04,35.85-21.98,42.53-4.85,1.91-10.47,2.22-15.77,2.51-7.09,.39-14.23,.2-21.33-.02-4.01-.12-5.73,1.38-5.66,5.43,.19,11.97,.12,23.94,.4,35.91,.09,3.84-1.26,5.34-5.08,5.33-11.1-.04-11.05,.03-11.02-11.06,.05-17,.01-34.01,.01-51.01-.07,0-.14,0-.21,0Zm15.96-23.16s.01,0,.02,0c0,6.07,.22,12.15-.07,18.2-.21,4.45,1.3,6.42,5.89,6.28,6.06-.19,12.14,.07,18.21,0,14.67-.15,24.26-9.69,24.28-24.06,.02-14.63-9.15-23.82-24.14-24.11-6.24-.12-12.49,.02-18.72-.14-4.03-.1-5.62,1.64-5.5,5.63,.17,6.06,.05,12.14,.05,18.2Z"/>
      <path d="M801.73,272.23c0-16.47-.09-32.95,.06-49.42,.04-4.57-1.74-6.15-6.21-5.98-8.14,.31-16.29,.21-24.44,.34-3.66,.06-5.33-1.36-5.19-5.28,.34-9.52,.21-9.42,10.01-9.43,23.75-.02,47.51-.12,71.26-.3,3.2-.02,4.98,.84,4.82,4.35-.45,9.97,2.34,11.13-10.03,10.46-6.4-.35-12.85,.23-19.23-.18-4.36-.28-5.59,1.61-5.56,5.39,.06,6.93,.1,13.87,.13,20.81,.11,25.83,.17,51.67,.36,77.5,.03,3.72-1.21,5.37-5.1,5.36-10.92-.02-10.89,.07-10.86-10.98,.03-14.22,0-28.44,0-42.66h-.02Z"/>
      <path class="cls-1" d="M580.61,260.65c.28-7.77,1.1-18.34,6.12-27.96,5.74-11,14.51-17.23,27.42-17.19,12.81,.03,21.85,5.86,27.51,17.02,6.36,12.52,6.51,26.06,5.65,39.64-.56,8.87-2.07,17.5-6.84,25.32-6.63,10.86-16.3,15.72-28.8,14.83-11.94-.86-20.53-7.05-25.44-17.86-4.44-9.78-5.83-20.25-5.63-33.79Z"/>
      <path class="cls-1" d="M696.34,238.98c0-5.89,.04-11.77-.02-17.66-.02-2.57,.55-4.46,3.66-4.42,8.31,.12,16.64-.22,24.91,.41,8.69,.66,15.69,4.67,18.6,13.45,2.83,8.52,2.36,16.74-3.99,23.84-4.18,4.68-9.66,6.73-15.7,6.96-7.61,.29-15.23,.03-22.85,.18-3.72,.07-4.79-1.7-4.7-5.12,.15-5.88,.04-11.77,.04-17.65,.01,0,.03,0,.04,0Z"/>
      <path class="cls-1" d="M490.78,240.64c0-6.07,.13-12.14-.05-18.2-.11-3.99,1.48-5.73,5.5-5.63,6.24,.16,12.48,.02,18.72,.14,14.99,.29,24.16,9.49,24.14,24.11-.02,14.37-9.6,23.91-24.28,24.06-6.07,.06-12.14-.19-18.21,0-4.59,.14-6.11-1.83-5.89-6.28,.29-6.06,.07-12.13,.07-18.2,0,0-.01,0-.02,0Z"/>
    </g>
    <g>
      <path d="M819.09,430.39v-42.95h7.09v16.9h13.97v-16.9h7.09v42.95h-7.09v-18.78h-13.97v18.78h-7.09Z"/>
      <path d="M854.54,387.44h12.97c3.28,0,5.75,.37,7.42,1.1s3.2,1.97,4.61,3.71c1.41,1.74,2.51,3.99,3.31,6.77,.8,2.77,1.2,6.22,1.2,10.34,0,3.71-.42,6.94-1.26,9.68-.84,2.74-1.9,4.92-3.19,6.52-1.29,1.6-2.84,2.81-4.67,3.62-1.82,.81-4.17,1.22-7.04,1.22h-13.35v-42.95Zm7.09,7.27v28.42h5.33c2.29,0,3.94-.21,4.97-.64,1.03-.43,1.86-1.08,2.52-1.95,.65-.87,1.2-2.24,1.63-4.11,.43-1.87,.64-4.34,.64-7.4s-.22-5.69-.66-7.52-1.12-3.28-2.05-4.33c-.93-1.05-2.06-1.75-3.38-2.08-1-.25-2.92-.38-5.77-.38h-3.22Z"/>
    </g>
  </g>
</svg>